#VRML V2.0 utf8
# Original procedural model for MeshThumbs, MIT license.
Group { children [
Transform { translation 0 0 0 children [ Shape { appearance Appearance { material Material { diffuseColor 0.03 0.32 0.18 } } geometry Box { size 6 0.18 4 } } ] }
Transform { translation -2.25 0.099 0 children [ Shape { appearance Appearance { material Material { diffuseColor 0.5 0.52 0.12 } } geometry Box { size 0.035 0.016 3.4 } } ] }
Transform { translation -1.9 0.099 0 children [ Shape { appearance Appearance { material Material { diffuseColor 0.5 0.52 0.12 } } geometry Box { size 0.035 0.016 3.4 } } ] }
Transform { translation -1.55 0.099 0 children [ Shape { appearance Appearance { material Material { diffuseColor 0.5 0.52 0.12 } } geometry Box { size 0.035 0.016 3.4 } } ] }
Transform { translation -1.2 0.099 0 children [ Shape { appearance Appearance { material Material { diffuseColor 0.5 0.52 0.12 } } geometry Box { size 0.035 0.016 3.4 } } ] }
Transform { translation -0.85 0.099 0 children [ Shape { appearance Appearance { material Material { diffuseColor 0.5 0.52 0.12 } } geometry Box { size 0.035 0.016 3.4 } } ] }
Transform { translation 0.85 0.099 0 children [ Shape { appearance Appearance { material Material { diffuseColor 0.5 0.52 0.12 } } geometry Box { size 0.035 0.016 3.4 } } ] }
Transform { translation 1.2 0.099 0 children [ Shape { appearance Appearance { material Material { diffuseColor 0.5 0.52 0.12 } } geometry Box { size 0.035 0.016 3.4 } } ] }
Transform { translation 1.55 0.099 0 children [ Shape { appearance Appearance { material Material { diffuseColor 0.5 0.52 0.12 } } geometry Box { size 0.035 0.016 3.4 } } ] }
Transform { translation 1.9 0.099 0 children [ Shape { appearance Appearance { material Material { diffuseColor 0.5 0.52 0.12 } } geometry Box { size 0.035 0.016 3.4 } } ] }
Transform { translation 2.25 0.099 0 children [ Shape { appearance Appearance { material Material { diffuseColor 0.5 0.52 0.12 } } geometry Box { size 0.035 0.016 3.4 } } ] }
Transform { translation 0 0.11 -1.35 children [ Shape { appearance Appearance { material Material { diffuseColor 0.5 0.52 0.12 } } geometry Box { size 5.5 0.015 0.035 } } ] }
Transform { translation 0 0.11 -1 children [ Shape { appearance Appearance { material Material { diffuseColor 0.5 0.52 0.12 } } geometry Box { size 5.5 0.015 0.035 } } ] }
Transform { translation 0 0.11 -0.65 children [ Shape { appearance Appearance { material Material { diffuseColor 0.5 0.52 0.12 } } geometry Box { size 5.5 0.015 0.035 } } ] }
Transform { translation 0 0.11 0.65 children [ Shape { appearance Appearance { material Material { diffuseColor 0.5 0.52 0.12 } } geometry Box { size 5.5 0.015 0.035 } } ] }
Transform { translation 0 0.11 1 children [ Shape { appearance Appearance { material Material { diffuseColor 0.5 0.52 0.12 } } geometry Box { size 5.5 0.015 0.035 } } ] }
Transform { translation 0 0.11 1.35 children [ Shape { appearance Appearance { material Material { diffuseColor 0.5 0.52 0.12 } } geometry Box { size 5.5 0.015 0.035 } } ] }
Transform { translation -0.72 0.19 -1.0 children [ DEF Pin Shape { appearance Appearance { material Material { diffuseColor 0.7 0.72 0.74 } } geometry Box { size .12 .12 .48 } } ] }
Transform { translation -0.48 0.19 -1.0 children [ USE Pin ] }
Transform { translation -0.24 0.19 -1.0 children [ USE Pin ] }
Transform { translation 0 0.19 -1.0 children [ USE Pin ] }
Transform { translation 0.24 0.19 -1.0 children [ USE Pin ] }
Transform { translation 0.48 0.19 -1.0 children [ USE Pin ] }
Transform { translation 0.72 0.19 -1.0 children [ USE Pin ] }
Transform { translation -0.72 0.19 1.0 children [ USE Pin ] }
Transform { translation -0.48 0.19 1.0 children [ USE Pin ] }
Transform { translation -0.24 0.19 1.0 children [ USE Pin ] }
Transform { translation 0 0.19 1.0 children [ USE Pin ] }
Transform { translation 0.24 0.19 1.0 children [ USE Pin ] }
Transform { translation 0.48 0.19 1.0 children [ USE Pin ] }
Transform { translation 0.72 0.19 1.0 children [ USE Pin ] }
Transform { translation 0 0.3 0 children [ Shape { appearance Appearance { material Material { diffuseColor 0.07 0.08 0.09 } } geometry Box { size 1.9 0.4 1.6 } } ] }
Transform { translation -0.47 0.506 -0.36 children [ Shape { appearance Appearance { material Material { diffuseColor 0.75 0.76 0.76 } } geometry Box { size 0.14 0.016 0.14 } } ] }
Transform { translation -0.2 0.508 0 children [ Shape { appearance Appearance { material Material { diffuseColor 0.55 0.56 0.57 } } geometry Box { size 0.08 0.018 0.43 } } ] }
Transform { translation 0 0.508 0 children [ Shape { appearance Appearance { material Material { diffuseColor 0.55 0.56 0.57 } } geometry Box { size 0.08 0.018 0.43 } } ] }
Transform { translation 0.2 0.508 0 children [ Shape { appearance Appearance { material Material { diffuseColor 0.55 0.56 0.57 } } geometry Box { size 0.08 0.018 0.43 } } ] }
Transform { translation -2.4 0.39 0 children [ Shape { appearance Appearance { material Material { diffuseColor 0.6 0.63 0.66 } } geometry Box { size 0.7 0.6 1.8 } } ] }
Transform { translation -2.77 0.39 0 children [ Shape { appearance Appearance { material Material { diffuseColor 0.05 0.06 0.07 } } geometry Box { size 0.035 0.37 1.43 } } ] }
Transform { translation -2.79 0.25 -0.45 children [ Shape { appearance Appearance { material Material { diffuseColor 0.83 0.64 0.18 } } geometry Box { size 0.07 0.08 0.12 } } ] }
Transform { translation -2.79 0.25 -0.15 children [ Shape { appearance Appearance { material Material { diffuseColor 0.83 0.64 0.18 } } geometry Box { size 0.07 0.08 0.12 } } ] }
Transform { translation -2.79 0.25 0.15 children [ Shape { appearance Appearance { material Material { diffuseColor 0.83 0.64 0.18 } } geometry Box { size 0.07 0.08 0.12 } } ] }
Transform { translation -2.79 0.25 0.45 children [ Shape { appearance Appearance { material Material { diffuseColor 0.83 0.64 0.18 } } geometry Box { size 0.07 0.08 0.12 } } ] }
Transform { translation 2.2 0.21 0 children [ Shape { appearance Appearance { material Material { diffuseColor 0.04 0.045 0.05 } } geometry Box { size 0.75 0.22 2.8 } } ] }
Transform { translation 2.02 0.52 -1.15 children [ Shape { appearance Appearance { material Material { diffuseColor 0.86 0.64 0.2 } } geometry Box { size 0.1 0.62 0.1 } } ] }
Transform { translation 2.02 0.52 -0.77 children [ Shape { appearance Appearance { material Material { diffuseColor 0.86 0.64 0.2 } } geometry Box { size 0.1 0.62 0.1 } } ] }
Transform { translation 2.02 0.52 -0.39 children [ Shape { appearance Appearance { material Material { diffuseColor 0.86 0.64 0.2 } } geometry Box { size 0.1 0.62 0.1 } } ] }
Transform { translation 2.02 0.52 0 children [ Shape { appearance Appearance { material Material { diffuseColor 0.86 0.64 0.2 } } geometry Box { size 0.1 0.62 0.1 } } ] }
Transform { translation 2.02 0.52 0.39 children [ Shape { appearance Appearance { material Material { diffuseColor 0.86 0.64 0.2 } } geometry Box { size 0.1 0.62 0.1 } } ] }
Transform { translation 2.02 0.52 0.77 children [ Shape { appearance Appearance { material Material { diffuseColor 0.86 0.64 0.2 } } geometry Box { size 0.1 0.62 0.1 } } ] }
Transform { translation 2.02 0.52 1.15 children [ Shape { appearance Appearance { material Material { diffuseColor 0.86 0.64 0.2 } } geometry Box { size 0.1 0.62 0.1 } } ] }
Transform { translation 2.38 0.52 -1.15 children [ Shape { appearance Appearance { material Material { diffuseColor 0.86 0.64 0.2 } } geometry Box { size 0.1 0.62 0.1 } } ] }
Transform { translation 2.38 0.52 -0.77 children [ Shape { appearance Appearance { material Material { diffuseColor 0.86 0.64 0.2 } } geometry Box { size 0.1 0.62 0.1 } } ] }
Transform { translation 2.38 0.52 -0.39 children [ Shape { appearance Appearance { material Material { diffuseColor 0.86 0.64 0.2 } } geometry Box { size 0.1 0.62 0.1 } } ] }
Transform { translation 2.38 0.52 0 children [ Shape { appearance Appearance { material Material { diffuseColor 0.86 0.64 0.2 } } geometry Box { size 0.1 0.62 0.1 } } ] }
Transform { translation 2.38 0.52 0.39 children [ Shape { appearance Appearance { material Material { diffuseColor 0.86 0.64 0.2 } } geometry Box { size 0.1 0.62 0.1 } } ] }
Transform { translation 2.38 0.52 0.77 children [ Shape { appearance Appearance { material Material { diffuseColor 0.86 0.64 0.2 } } geometry Box { size 0.1 0.62 0.1 } } ] }
Transform { translation 2.38 0.52 1.15 children [ Shape { appearance Appearance { material Material { diffuseColor 0.86 0.64 0.2 } } geometry Box { size 0.1 0.62 0.1 } } ] }
Transform { translation -1.55 0.48 1.17 children [ Shape { appearance Appearance { material Material { diffuseColor 0.12 0.16 0.22 } } geometry Cylinder { radius 0.25 height 0.75 } } ] }
Transform { translation -1.55 0.865 1.17 children [ Shape { appearance Appearance { material Material { diffuseColor 0.68 0.71 0.74 } } geometry Cylinder { radius 0.24 height 0.025 } } ] }
Transform { translation 1.3 0.48 1.17 children [ Shape { appearance Appearance { material Material { diffuseColor 0.12 0.16 0.22 } } geometry Cylinder { radius 0.25 height 0.75 } } ] }
Transform { translation 1.3 0.865 1.17 children [ Shape { appearance Appearance { material Material { diffuseColor 0.68 0.71 0.74 } } geometry Cylinder { radius 0.24 height 0.025 } } ] }
Transform { translation -1.35 0.22 -1.22 children [ Shape { appearance Appearance { material Material { diffuseColor 0.65 0.48 0.29 } } geometry Box { size 0.6 0.24 0.43 } } ] }
Transform { translation -1.6500000000000001 0.225 -1.22 children [ Shape { appearance Appearance { material Material { diffuseColor 0.67 0.7 0.72 } } geometry Box { size 0.13 0.25 0.45 } } ] }
Transform { translation -1.05 0.225 -1.22 children [ Shape { appearance Appearance { material Material { diffuseColor 0.67 0.7 0.72 } } geometry Box { size 0.13 0.25 0.45 } } ] }
Transform { translation 1.35 0.22 -1.22 children [ Shape { appearance Appearance { material Material { diffuseColor 0.65 0.48 0.29 } } geometry Box { size 0.6 0.24 0.43 } } ] }
Transform { translation 1.05 0.225 -1.22 children [ Shape { appearance Appearance { material Material { diffuseColor 0.67 0.7 0.72 } } geometry Box { size 0.13 0.25 0.45 } } ] }
Transform { translation 1.6500000000000001 0.225 -1.22 children [ Shape { appearance Appearance { material Material { diffuseColor 0.67 0.7 0.72 } } geometry Box { size 0.13 0.25 0.45 } } ] }
Shape { appearance Appearance { material Material { diffuseColor 0.79 0.62 0.2 } } geometry IndexedFaceSet { solid FALSE coord Coordinate { point [-2.52 0.1 -1.7 -2.526133351267968 0.1 -1.6534125718815462 -2.5441154273188014 0.1 -1.6099999999999999 -2.5727207793864215 0.1 -1.5727207793864215 -2.6100000000000003 0.1 -1.544115427318801 -2.6534125718815464 0.1 -1.5261333512679678 -2.7 0.1 -1.52 -2.746587428118454 0.1 -1.5261333512679678 -2.79 0.1 -1.544115427318801 -2.827279220613579 0.1 -1.5727207793864215 -2.855884572681199 0.1 -1.6099999999999999 -2.8738666487320326 0.1 -1.6534125718815462 -2.8800000000000003 0.1 -1.7 -2.8738666487320326 0.1 -1.7465874281184537 -2.855884572681199 0.1 -1.7899999999999998 -2.827279220613579 0.1 -1.8272792206135784 -2.79 0.1 -1.855884572681199 -2.746587428118454 0.1 -1.8738666487320321 -2.7 0.1 -1.88 -2.6534125718815464 0.1 -1.8738666487320323 -2.6100000000000003 0.1 -1.855884572681199 -2.5727207793864215 0.1 -1.8272792206135786 -2.5441154273188014 0.1 -1.79 -2.526133351267968 0.1 -1.746587428118454 -2.6100000000000003 0.1 -1.7 -2.613066675633984 0.1 -1.676706285940773 -2.6220577136594008 0.1 -1.655 -2.636360389693211 0.1 -1.6363603896932106 -2.6550000000000002 0.1 -1.6220577136594005 -2.6767062859407735 0.1 -1.6130666756339838 -2.7 0.1 -1.6099999999999999 -2.723293714059227 0.1 -1.6130666756339838 -2.745 0.1 -1.6220577136594005 -2.7636396103067895 0.1 -1.6363603896932106 -2.7779422863405996 0.1 -1.655 -2.786933324366016 0.1 -1.676706285940773 -2.79 0.1 -1.7 -2.786933324366016 0.1 -1.7232937140592268 -2.7779422863405996 0.1 -1.7449999999999999 -2.7636396103067895 0.1 -1.7636396103067893 -2.745 0.1 -1.7779422863405994 -2.723293714059227 0.1 -1.7869333243660162 -2.7 0.1 -1.79 -2.6767062859407735 0.1 -1.7869333243660162 -2.6550000000000002 0.1 -1.7779422863405994 -2.636360389693211 0.1 -1.7636396103067893 -2.6220577136594008 0.1 -1.745 -2.613066675633984 0.1 -1.7232937140592268] } coordIndex [0 24 25 1 -1 1 25 26 2 -1 2 26 27 3 -1 3 27 28 4 -1 4 28 29 5 -1 5 29 30 6 -1 6 30 31 7 -1 7 31 32 8 -1 8 32 33 9 -1 9 33 34 10 -1 10 34 35 11 -1 11 35 36 12 -1 12 36 37 13 -1 13 37 38 14 -1 14 38 39 15 -1 15 39 40 16 -1 16 40 41 17 -1 17 41 42 18 -1 18 42 43 19 -1 19 43 44 20 -1 20 44 45 21 -1 21 45 46 22 -1 22 46 47 23 -1 23 47 24 0 -1] } }
Shape { appearance Appearance { material Material { diffuseColor 0.79 0.62 0.2 } } geometry IndexedFaceSet { solid FALSE coord Coordinate { point [-2.52 0.1 1.7 -2.526133351267968 0.1 1.7465874281184537 -2.5441154273188014 0.1 1.79 -2.5727207793864215 0.1 1.8272792206135784 -2.6100000000000003 0.1 1.855884572681199 -2.6534125718815464 0.1 1.8738666487320321 -2.7 0.1 1.88 -2.746587428118454 0.1 1.8738666487320321 -2.79 0.1 1.855884572681199 -2.827279220613579 0.1 1.8272792206135784 -2.855884572681199 0.1 1.79 -2.8738666487320326 0.1 1.7465874281184537 -2.8800000000000003 0.1 1.7 -2.8738666487320326 0.1 1.6534125718815462 -2.855884572681199 0.1 1.61 -2.827279220613579 0.1 1.5727207793864215 -2.79 0.1 1.544115427318801 -2.746587428118454 0.1 1.5261333512679678 -2.7 0.1 1.52 -2.6534125718815464 0.1 1.5261333512679676 -2.6100000000000003 0.1 1.544115427318801 -2.5727207793864215 0.1 1.5727207793864213 -2.5441154273188014 0.1 1.6099999999999999 -2.526133351267968 0.1 1.653412571881546 -2.6100000000000003 0.1 1.7 -2.613066675633984 0.1 1.7232937140592268 -2.6220577136594008 0.1 1.7449999999999999 -2.636360389693211 0.1 1.7636396103067893 -2.6550000000000002 0.1 1.7779422863405994 -2.6767062859407735 0.1 1.7869333243660162 -2.7 0.1 1.79 -2.723293714059227 0.1 1.7869333243660162 -2.745 0.1 1.7779422863405994 -2.7636396103067895 0.1 1.7636396103067893 -2.7779422863405996 0.1 1.7449999999999999 -2.786933324366016 0.1 1.7232937140592268 -2.79 0.1 1.7 -2.786933324366016 0.1 1.676706285940773 -2.7779422863405996 0.1 1.655 -2.7636396103067895 0.1 1.6363603896932106 -2.745 0.1 1.6220577136594005 -2.723293714059227 0.1 1.6130666756339838 -2.7 0.1 1.6099999999999999 -2.6767062859407735 0.1 1.6130666756339838 -2.6550000000000002 0.1 1.6220577136594005 -2.636360389693211 0.1 1.6363603896932106 -2.6220577136594008 0.1 1.6549999999999998 -2.613066675633984 0.1 1.676706285940773] } coordIndex [0 24 25 1 -1 1 25 26 2 -1 2 26 27 3 -1 3 27 28 4 -1 4 28 29 5 -1 5 29 30 6 -1 6 30 31 7 -1 7 31 32 8 -1 8 32 33 9 -1 9 33 34 10 -1 10 34 35 11 -1 11 35 36 12 -1 12 36 37 13 -1 13 37 38 14 -1 14 38 39 15 -1 15 39 40 16 -1 16 40 41 17 -1 17 41 42 18 -1 18 42 43 19 -1 19 43 44 20 -1 20 44 45 21 -1 21 45 46 22 -1 22 46 47 23 -1 23 47 24 0 -1] } }
Shape { appearance Appearance { material Material { diffuseColor 0.79 0.62 0.2 } } geometry IndexedFaceSet { solid FALSE coord Coordinate { point [2.8800000000000003 0.1 -1.7 2.8738666487320326 0.1 -1.6534125718815462 2.855884572681199 0.1 -1.6099999999999999 2.827279220613579 0.1 -1.5727207793864215 2.79 0.1 -1.544115427318801 2.746587428118454 0.1 -1.5261333512679678 2.7 0.1 -1.52 2.6534125718815464 0.1 -1.5261333512679678 2.6100000000000003 0.1 -1.544115427318801 2.5727207793864215 0.1 -1.5727207793864215 2.5441154273188014 0.1 -1.6099999999999999 2.526133351267968 0.1 -1.6534125718815462 2.52 0.1 -1.7 2.526133351267968 0.1 -1.7465874281184537 2.5441154273188014 0.1 -1.7899999999999998 2.5727207793864215 0.1 -1.8272792206135784 2.6100000000000003 0.1 -1.855884572681199 2.6534125718815464 0.1 -1.8738666487320321 2.7 0.1 -1.88 2.746587428118454 0.1 -1.8738666487320323 2.79 0.1 -1.855884572681199 2.827279220613579 0.1 -1.8272792206135786 2.855884572681199 0.1 -1.79 2.8738666487320326 0.1 -1.746587428118454 2.79 0.1 -1.7 2.786933324366016 0.1 -1.676706285940773 2.7779422863405996 0.1 -1.655 2.7636396103067895 0.1 -1.6363603896932106 2.745 0.1 -1.6220577136594005 2.723293714059227 0.1 -1.6130666756339838 2.7 0.1 -1.6099999999999999 2.6767062859407735 0.1 -1.6130666756339838 2.6550000000000002 0.1 -1.6220577136594005 2.636360389693211 0.1 -1.6363603896932106 2.6220577136594008 0.1 -1.655 2.613066675633984 0.1 -1.676706285940773 2.6100000000000003 0.1 -1.7 2.613066675633984 0.1 -1.7232937140592268 2.6220577136594008 0.1 -1.7449999999999999 2.636360389693211 0.1 -1.7636396103067893 2.6550000000000002 0.1 -1.7779422863405994 2.6767062859407735 0.1 -1.7869333243660162 2.7 0.1 -1.79 2.723293714059227 0.1 -1.7869333243660162 2.745 0.1 -1.7779422863405994 2.7636396103067895 0.1 -1.7636396103067893 2.7779422863405996 0.1 -1.745 2.786933324366016 0.1 -1.7232937140592268] } coordIndex [0 24 25 1 -1 1 25 26 2 -1 2 26 27 3 -1 3 27 28 4 -1 4 28 29 5 -1 5 29 30 6 -1 6 30 31 7 -1 7 31 32 8 -1 8 32 33 9 -1 9 33 34 10 -1 10 34 35 11 -1 11 35 36 12 -1 12 36 37 13 -1 13 37 38 14 -1 14 38 39 15 -1 15 39 40 16 -1 16 40 41 17 -1 17 41 42 18 -1 18 42 43 19 -1 19 43 44 20 -1 20 44 45 21 -1 21 45 46 22 -1 22 46 47 23 -1 23 47 24 0 -1] } }
Shape { appearance Appearance { material Material { diffuseColor 0.79 0.62 0.2 } } geometry IndexedFaceSet { solid FALSE coord Coordinate { point [2.8800000000000003 0.1 1.7 2.8738666487320326 0.1 1.7465874281184537 2.855884572681199 0.1 1.79 2.827279220613579 0.1 1.8272792206135784 2.79 0.1 1.855884572681199 2.746587428118454 0.1 1.8738666487320321 2.7 0.1 1.88 2.6534125718815464 0.1 1.8738666487320321 2.6100000000000003 0.1 1.855884572681199 2.5727207793864215 0.1 1.8272792206135784 2.5441154273188014 0.1 1.79 2.526133351267968 0.1 1.7465874281184537 2.52 0.1 1.7 2.526133351267968 0.1 1.6534125718815462 2.5441154273188014 0.1 1.61 2.5727207793864215 0.1 1.5727207793864215 2.6100000000000003 0.1 1.544115427318801 2.6534125718815464 0.1 1.5261333512679678 2.7 0.1 1.52 2.746587428118454 0.1 1.5261333512679676 2.79 0.1 1.544115427318801 2.827279220613579 0.1 1.5727207793864213 2.855884572681199 0.1 1.6099999999999999 2.8738666487320326 0.1 1.653412571881546 2.79 0.1 1.7 2.786933324366016 0.1 1.7232937140592268 2.7779422863405996 0.1 1.7449999999999999 2.7636396103067895 0.1 1.7636396103067893 2.745 0.1 1.7779422863405994 2.723293714059227 0.1 1.7869333243660162 2.7 0.1 1.79 2.6767062859407735 0.1 1.7869333243660162 2.6550000000000002 0.1 1.7779422863405994 2.636360389693211 0.1 1.7636396103067893 2.6220577136594008 0.1 1.7449999999999999 2.613066675633984 0.1 1.7232937140592268 2.6100000000000003 0.1 1.7 2.613066675633984 0.1 1.676706285940773 2.6220577136594008 0.1 1.655 2.636360389693211 0.1 1.6363603896932106 2.6550000000000002 0.1 1.6220577136594005 2.6767062859407735 0.1 1.6130666756339838 2.7 0.1 1.6099999999999999 2.723293714059227 0.1 1.6130666756339838 2.745 0.1 1.6220577136594005 2.7636396103067895 0.1 1.6363603896932106 2.7779422863405996 0.1 1.6549999999999998 2.786933324366016 0.1 1.676706285940773] } coordIndex [0 24 25 1 -1 1 25 26 2 -1 2 26 27 3 -1 3 27 28 4 -1 4 28 29 5 -1 5 29 30 6 -1 6 30 31 7 -1 7 31 32 8 -1 8 32 33 9 -1 9 33 34 10 -1 10 34 35 11 -1 11 35 36 12 -1 12 36 37 13 -1 13 37 38 14 -1 14 38 39 15 -1 15 39 40 16 -1 16 40 41 17 -1 17 41 42 18 -1 18 42 43 19 -1 19 43 44 20 -1 20 44 45 21 -1 21 45 46 22 -1 22 46 47 23 -1 23 47 24 0 -1] } }
] }
