ISO-10303-21;
HEADER;
FILE_DESCRIPTION(('Original MeshThumbs example, MIT'),'2;1');
FILE_NAME('House.ifc','2026-09-16T00:00:00',('MeshThumbs'),('MeshThumbs'),'MeshThumbs','MeshThumbs','');
FILE_SCHEMA(('IFC2X3'));
ENDSEC;
DATA;
#1=IFCCARTESIANPOINT((0.000000,0.000000,0.000000));
#2=IFCDIRECTION((0.,0.,1.));
#3=IFCDIRECTION((1.,0.,0.));
#4=IFCAXIS2PLACEMENT3D(#1,#2,#3);
#5=IFCLOCALPLACEMENT($,#4);
#6=IFCPERSON($,$,'MeshThumbs',$,$,$,$,$);
#7=IFCORGANIZATION($,'MeshThumbs',$,$,$);
#8=IFCPERSONANDORGANIZATION(#6,#7,$);
#9=IFCAPPLICATION(#7,'1.0.8','MeshThumbs','MeshThumbs');
#10=IFCOWNERHISTORY(#8,#9,$,.ADDED.,$,$,$,0);
#11=IFCGEOMETRICREPRESENTATIONCONTEXT($,'Model',3,0.00001,#4,$);
#12=IFCSIUNIT(*,.LENGTHUNIT.,$,.METRE.);
#13=IFCUNITASSIGNMENT((#12));
#14=IFCPROJECT('0000000000000000000013',#10,'Example house',$,$,$,$,(#11),#13);
#15=IFCBUILDING('0000000000000000000014',#10,'House',$,$,#5,$,$,.ELEMENT.,$,$,$);
#16=IFCBUILDINGSTOREY('0000000000000000000015',#10,'Ground floor',$,$,#5,$,$,.ELEMENT.,0.);
#17=IFCRELAGGREGATES('0000000000000000000016',#10,$,$,#14,(#15));
#18=IFCRELAGGREGATES('0000000000000000000017',#10,$,$,#15,(#16));
#19=IFCCARTESIANPOINT((0.,0.));
#20=IFCAXIS2PLACEMENT2D(#19,$);
#21=IFCCARTESIANPOINT((0.000000,0.000000,0.000000));
#22=IFCAXIS2PLACEMENT3D(#21,#2,#3);
#23=IFCRECTANGLEPROFILEDEF(.AREA.,$,#20,9.000000,7.000000);
#24=IFCEXTRUDEDAREASOLID(#23,#22,#2,0.300000);
#25=IFCCOLOURRGB($,0.56,0.6,0.63);
#26=IFCSURFACESTYLESHADING(#25);
#27=IFCSURFACESTYLE($,.BOTH.,(#26));
#28=IFCPRESENTATIONSTYLEASSIGNMENT((#27));
#29=IFCSTYLEDITEM(#24,(#28),$);
#30=IFCSHAPEREPRESENTATION(#11,'Body','SweptSolid',(#24));
#31=IFCPRODUCTDEFINITIONSHAPE($,$,(#30));
#32=IFCBUILDINGELEMENTPROXY('0000000000000000000031',#10,'Foundation',$,$,#5,#31,$,.ELEMENT.);
#33=IFCCARTESIANPOINT((0.000000,2.800000,0.300000));
#34=IFCAXIS2PLACEMENT3D(#33,#2,#3);
#35=IFCRECTANGLEPROFILEDEF(.AREA.,$,#20,8.000000,0.300000);
#36=IFCEXTRUDEDAREASOLID(#35,#34,#2,3.100000);
#37=IFCCOLOURRGB($,0.78,0.83,0.87);
#38=IFCSURFACESTYLESHADING(#37);
#39=IFCSURFACESTYLE($,.BOTH.,(#38));
#40=IFCPRESENTATIONSTYLEASSIGNMENT((#39));
#41=IFCSTYLEDITEM(#36,(#40),$);
#42=IFCSHAPEREPRESENTATION(#11,'Body','SweptSolid',(#36));
#43=IFCPRODUCTDEFINITIONSHAPE($,$,(#42));
#44=IFCBUILDINGELEMENTPROXY('0000000000000000000043',#10,'Rear wall',$,$,#5,#43,$,.ELEMENT.);
#45=IFCCARTESIANPOINT((-3.850000,0.000000,0.300000));
#46=IFCAXIS2PLACEMENT3D(#45,#2,#3);
#47=IFCRECTANGLEPROFILEDEF(.AREA.,$,#20,0.300000,5.600000);
#48=IFCEXTRUDEDAREASOLID(#47,#46,#2,3.100000);
#49=IFCCOLOURRGB($,0.78,0.83,0.87);
#50=IFCSURFACESTYLESHADING(#49);
#51=IFCSURFACESTYLE($,.BOTH.,(#50));
#52=IFCPRESENTATIONSTYLEASSIGNMENT((#51));
#53=IFCSTYLEDITEM(#48,(#52),$);
#54=IFCSHAPEREPRESENTATION(#11,'Body','SweptSolid',(#48));
#55=IFCPRODUCTDEFINITIONSHAPE($,$,(#54));
#56=IFCBUILDINGELEMENTPROXY('0000000000000000000055',#10,'Side left',$,$,#5,#55,$,.ELEMENT.);
#57=IFCCARTESIANPOINT((3.850000,0.000000,0.300000));
#58=IFCAXIS2PLACEMENT3D(#57,#2,#3);
#59=IFCRECTANGLEPROFILEDEF(.AREA.,$,#20,0.300000,5.600000);
#60=IFCEXTRUDEDAREASOLID(#59,#58,#2,3.100000);
#61=IFCCOLOURRGB($,0.78,0.83,0.87);
#62=IFCSURFACESTYLESHADING(#61);
#63=IFCSURFACESTYLE($,.BOTH.,(#62));
#64=IFCPRESENTATIONSTYLEASSIGNMENT((#63));
#65=IFCSTYLEDITEM(#60,(#64),$);
#66=IFCSHAPEREPRESENTATION(#11,'Body','SweptSolid',(#60));
#67=IFCPRODUCTDEFINITIONSHAPE($,$,(#66));
#68=IFCBUILDINGELEMENTPROXY('0000000000000000000067',#10,'Side right',$,$,#5,#67,$,.ELEMENT.);
#69=IFCCARTESIANPOINT((0.000000,-2.800000,0.300000));
#70=IFCAXIS2PLACEMENT3D(#69,#2,#3);
#71=IFCRECTANGLEPROFILEDEF(.AREA.,$,#20,8.000000,0.300000);
#72=IFCEXTRUDEDAREASOLID(#71,#70,#2,0.750000);
#73=IFCCOLOURRGB($,0.78,0.83,0.87);
#74=IFCSURFACESTYLESHADING(#73);
#75=IFCSURFACESTYLE($,.BOTH.,(#74));
#76=IFCPRESENTATIONSTYLEASSIGNMENT((#75));
#77=IFCSTYLEDITEM(#72,(#76),$);
#78=IFCSHAPEREPRESENTATION(#11,'Body','SweptSolid',(#72));
#79=IFCPRODUCTDEFINITIONSHAPE($,$,(#78));
#80=IFCBUILDINGELEMENTPROXY('0000000000000000000079',#10,'Front sill',$,$,#5,#79,$,.ELEMENT.);
#81=IFCCARTESIANPOINT((0.000000,-2.800000,2.300000));
#82=IFCAXIS2PLACEMENT3D(#81,#2,#3);
#83=IFCRECTANGLEPROFILEDEF(.AREA.,$,#20,8.000000,0.300000);
#84=IFCEXTRUDEDAREASOLID(#83,#82,#2,1.100000);
#85=IFCCOLOURRGB($,0.78,0.83,0.87);
#86=IFCSURFACESTYLESHADING(#85);
#87=IFCSURFACESTYLE($,.BOTH.,(#86));
#88=IFCPRESENTATIONSTYLEASSIGNMENT((#87));
#89=IFCSTYLEDITEM(#84,(#88),$);
#90=IFCSHAPEREPRESENTATION(#11,'Body','SweptSolid',(#84));
#91=IFCPRODUCTDEFINITIONSHAPE($,$,(#90));
#92=IFCBUILDINGELEMENTPROXY('0000000000000000000091',#10,'Front lintel',$,$,#5,#91,$,.ELEMENT.);
#93=IFCCARTESIANPOINT((-3.600000,-2.800000,1.050000));
#94=IFCAXIS2PLACEMENT3D(#93,#2,#3);
#95=IFCRECTANGLEPROFILEDEF(.AREA.,$,#20,0.800000,0.300000);
#96=IFCEXTRUDEDAREASOLID(#95,#94,#2,1.250000);
#97=IFCCOLOURRGB($,0.78,0.83,0.87);
#98=IFCSURFACESTYLESHADING(#97);
#99=IFCSURFACESTYLE($,.BOTH.,(#98));
#100=IFCPRESENTATIONSTYLEASSIGNMENT((#99));
#101=IFCSTYLEDITEM(#96,(#100),$);
#102=IFCSHAPEREPRESENTATION(#11,'Body','SweptSolid',(#96));
#103=IFCPRODUCTDEFINITIONSHAPE($,$,(#102));
#104=IFCBUILDINGELEMENTPROXY('0000000000000000000103',#10,'Front pier',$,$,#5,#103,$,.ELEMENT.);
#105=IFCCARTESIANPOINT((-1.300000,-2.800000,1.050000));
#106=IFCAXIS2PLACEMENT3D(#105,#2,#3);
#107=IFCRECTANGLEPROFILEDEF(.AREA.,$,#20,0.800000,0.300000);
#108=IFCEXTRUDEDAREASOLID(#107,#106,#2,1.250000);
#109=IFCCOLOURRGB($,0.78,0.83,0.87);
#110=IFCSURFACESTYLESHADING(#109);
#111=IFCSURFACESTYLE($,.BOTH.,(#110));
#112=IFCPRESENTATIONSTYLEASSIGNMENT((#111));
#113=IFCSTYLEDITEM(#108,(#112),$);
#114=IFCSHAPEREPRESENTATION(#11,'Body','SweptSolid',(#108));
#115=IFCPRODUCTDEFINITIONSHAPE($,$,(#114));
#116=IFCBUILDINGELEMENTPROXY('0000000000000000000115',#10,'Front pier',$,$,#5,#115,$,.ELEMENT.);
#117=IFCCARTESIANPOINT((1.300000,-2.800000,1.050000));
#118=IFCAXIS2PLACEMENT3D(#117,#2,#3);
#119=IFCRECTANGLEPROFILEDEF(.AREA.,$,#20,0.800000,0.300000);
#120=IFCEXTRUDEDAREASOLID(#119,#118,#2,1.250000);
#121=IFCCOLOURRGB($,0.78,0.83,0.87);
#122=IFCSURFACESTYLESHADING(#121);
#123=IFCSURFACESTYLE($,.BOTH.,(#122));
#124=IFCPRESENTATIONSTYLEASSIGNMENT((#123));
#125=IFCSTYLEDITEM(#120,(#124),$);
#126=IFCSHAPEREPRESENTATION(#11,'Body','SweptSolid',(#120));
#127=IFCPRODUCTDEFINITIONSHAPE($,$,(#126));
#128=IFCBUILDINGELEMENTPROXY('0000000000000000000127',#10,'Front pier',$,$,#5,#127,$,.ELEMENT.);
#129=IFCCARTESIANPOINT((3.600000,-2.800000,1.050000));
#130=IFCAXIS2PLACEMENT3D(#129,#2,#3);
#131=IFCRECTANGLEPROFILEDEF(.AREA.,$,#20,0.800000,0.300000);
#132=IFCEXTRUDEDAREASOLID(#131,#130,#2,1.250000);
#133=IFCCOLOURRGB($,0.78,0.83,0.87);
#134=IFCSURFACESTYLESHADING(#133);
#135=IFCSURFACESTYLE($,.BOTH.,(#134));
#136=IFCPRESENTATIONSTYLEASSIGNMENT((#135));
#137=IFCSTYLEDITEM(#132,(#136),$);
#138=IFCSHAPEREPRESENTATION(#11,'Body','SweptSolid',(#132));
#139=IFCPRODUCTDEFINITIONSHAPE($,$,(#138));
#140=IFCBUILDINGELEMENTPROXY('0000000000000000000139',#10,'Front pier',$,$,#5,#139,$,.ELEMENT.);
#141=IFCCARTESIANPOINT((0.000000,-2.980000,0.320000));
#142=IFCAXIS2PLACEMENT3D(#141,#2,#3);
#143=IFCRECTANGLEPROFILEDEF(.AREA.,$,#20,1.400000,0.160000);
#144=IFCEXTRUDEDAREASOLID(#143,#142,#2,1.980000);
#145=IFCCOLOURRGB($,0.2,0.35,0.45);
#146=IFCSURFACESTYLESHADING(#145);
#147=IFCSURFACESTYLE($,.BOTH.,(#146));
#148=IFCPRESENTATIONSTYLEASSIGNMENT((#147));
#149=IFCSTYLEDITEM(#144,(#148),$);
#150=IFCSHAPEREPRESENTATION(#11,'Body','SweptSolid',(#144));
#151=IFCPRODUCTDEFINITIONSHAPE($,$,(#150));
#152=IFCBUILDINGELEMENTPROXY('0000000000000000000151',#10,'Door',$,$,#5,#151,$,.ELEMENT.);
#153=IFCCARTESIANPOINT((-2.450000,-2.960000,1.100000));
#154=IFCAXIS2PLACEMENT3D(#153,#2,#3);
#155=IFCRECTANGLEPROFILEDEF(.AREA.,$,#20,1.150000,0.090000);
#156=IFCEXTRUDEDAREASOLID(#155,#154,#2,1.120000);
#157=IFCCOLOURRGB($,0.25,0.6,0.8);
#158=IFCSURFACESTYLESHADING(#157);
#159=IFCSURFACESTYLE($,.BOTH.,(#158));
#160=IFCPRESENTATIONSTYLEASSIGNMENT((#159));
#161=IFCSTYLEDITEM(#156,(#160),$);
#162=IFCSHAPEREPRESENTATION(#11,'Body','SweptSolid',(#156));
#163=IFCPRODUCTDEFINITIONSHAPE($,$,(#162));
#164=IFCBUILDINGELEMENTPROXY('0000000000000000000163',#10,'Window',$,$,#5,#163,$,.ELEMENT.);
#165=IFCCARTESIANPOINT((2.450000,-2.960000,1.100000));
#166=IFCAXIS2PLACEMENT3D(#165,#2,#3);
#167=IFCRECTANGLEPROFILEDEF(.AREA.,$,#20,1.150000,0.090000);
#168=IFCEXTRUDEDAREASOLID(#167,#166,#2,1.120000);
#169=IFCCOLOURRGB($,0.25,0.6,0.8);
#170=IFCSURFACESTYLESHADING(#169);
#171=IFCSURFACESTYLE($,.BOTH.,(#170));
#172=IFCPRESENTATIONSTYLEASSIGNMENT((#171));
#173=IFCSTYLEDITEM(#168,(#172),$);
#174=IFCSHAPEREPRESENTATION(#11,'Body','SweptSolid',(#168));
#175=IFCPRODUCTDEFINITIONSHAPE($,$,(#174));
#176=IFCBUILDINGELEMENTPROXY('0000000000000000000175',#10,'Window',$,$,#5,#175,$,.ELEMENT.);
#177=IFCCARTESIANPOINT((-4.200000,0.000000));
#178=IFCCARTESIANPOINT((4.200000,0.000000));
#179=IFCCARTESIANPOINT((0.000000,1.900000));
#180=IFCCARTESIANPOINT((-4.200000,0.000000));
#181=IFCPOLYLINE((#177,#178,#179,#180));
#182=IFCARBITRARYCLOSEDPROFILEDEF(.AREA.,$,#181);
#183=IFCCARTESIANPOINT((0.000000,3.200000,3.400000));
#184=IFCDIRECTION((0.,-1.,0.));
#185=IFCAXIS2PLACEMENT3D(#183,#184,#3);
#186=IFCEXTRUDEDAREASOLID(#182,#185,#2,6.4);
#187=IFCCOLOURRGB($,0.13,0.25,0.34);
#188=IFCSURFACESTYLESHADING(#187);
#189=IFCSURFACESTYLE($,.BOTH.,(#188));
#190=IFCPRESENTATIONSTYLEASSIGNMENT((#189));
#191=IFCSTYLEDITEM(#186,(#190),$);
#192=IFCSHAPEREPRESENTATION(#11,'Body','SweptSolid',(#186));
#193=IFCPRODUCTDEFINITIONSHAPE($,$,(#192));
#194=IFCBUILDINGELEMENTPROXY('0000000000000000000193',#10,'Roof',$,$,#5,#193,$,.ELEMENT.);
#195=IFCRELCONTAINEDINSPATIALSTRUCTURE('0000000000000000000194',#10,$,$,(#32,#44,#56,#68,#80,#92,#104,#116,#128,#140,#152,#164,#176,#194),#16);
ENDSEC;
END-ISO-10303-21;
