0
SECTION
2
HEADER
9
$ACADVER
1
AC1018
0
ENDSEC
0
SECTION
2
TABLES
0
TABLE
2
LAYER
70
6
0
LAYER
2
0
70
0
62
7
420
16777215
6
CONTINUOUS
0
LAYER
2
Supports
70
0
62
7
420
13753317
6
CONTINUOUS
0
LAYER
2
Beam
70
0
62
7
420
12558706
6
CONTINUOUS
0
LAYER
2
RoofBlue
70
0
62
7
420
4425105
6
CONTINUOUS
0
LAYER
2
RoofRust
70
0
62
7
420
12153168
6
CONTINUOUS
0
LAYER
2
Platform
70
0
62
7
420
7634048
6
CONTINUOUS
0
ENDTAB
0
ENDSEC
0
SECTION
2
BLOCKS
0
BLOCK
8
0
2
Post
70
0
10
5
20
-2
30
1
0
3DFACE
8
0
62
256
10
4.8900000
20
-2.1100000
30
1.0000000
11
4.8900000
21
-2.1100000
31
2.9000000
12
4.8900000
22
-1.8900000
32
2.9000000
13
4.8900000
23
-1.8900000
33
2.9000000
0
3DFACE
8
0
62
256
10
4.8900000
20
-2.1100000
30
1.0000000
11
4.8900000
21
-1.8900000
31
2.9000000
12
4.8900000
22
-1.8900000
32
1.0000000
13
4.8900000
23
-1.8900000
33
1.0000000
0
3DFACE
8
0
62
256
10
5.1100000
20
-1.8900000
30
1.0000000
11
5.1100000
21
-1.8900000
31
2.9000000
12
5.1100000
22
-2.1100000
32
2.9000000
13
5.1100000
23
-2.1100000
33
2.9000000
0
3DFACE
8
0
62
256
10
5.1100000
20
-1.8900000
30
1.0000000
11
5.1100000
21
-2.1100000
31
2.9000000
12
5.1100000
22
-2.1100000
32
1.0000000
13
5.1100000
23
-2.1100000
33
1.0000000
0
3DFACE
8
0
62
256
10
5.1100000
20
-1.8900000
30
1.0000000
11
5.1100000
21
-2.1100000
31
1.0000000
12
4.8900000
22
-2.1100000
32
1.0000000
13
4.8900000
23
-2.1100000
33
1.0000000
0
3DFACE
8
0
62
256
10
5.1100000
20
-1.8900000
30
1.0000000
11
4.8900000
21
-2.1100000
31
1.0000000
12
4.8900000
22
-1.8900000
32
1.0000000
13
4.8900000
23
-1.8900000
33
1.0000000
0
3DFACE
8
0
62
256
10
4.8900000
20
-1.8900000
30
2.9000000
11
4.8900000
21
-2.1100000
31
2.9000000
12
5.1100000
22
-2.1100000
32
2.9000000
13
5.1100000
23
-2.1100000
33
2.9000000
0
3DFACE
8
0
62
256
10
4.8900000
20
-1.8900000
30
2.9000000
11
5.1100000
21
-2.1100000
31
2.9000000
12
5.1100000
22
-1.8900000
32
2.9000000
13
5.1100000
23
-1.8900000
33
2.9000000
0
3DFACE
8
0
62
256
10
4.8900000
20
-1.8900000
30
2.9000000
11
5.1100000
21
-1.8900000
31
2.9000000
12
5.1100000
22
-1.8900000
32
1.0000000
13
5.1100000
23
-1.8900000
33
1.0000000
0
3DFACE
8
0
62
256
10
4.8900000
20
-1.8900000
30
2.9000000
11
5.1100000
21
-1.8900000
31
1.0000000
12
4.8900000
22
-1.8900000
32
1.0000000
13
4.8900000
23
-1.8900000
33
1.0000000
0
3DFACE
8
0
62
256
10
4.8900000
20
-2.1100000
30
1.0000000
11
5.1100000
21
-2.1100000
31
1.0000000
12
5.1100000
22
-2.1100000
32
2.9000000
13
5.1100000
23
-2.1100000
33
2.9000000
0
3DFACE
8
0
62
256
10
4.8900000
20
-2.1100000
30
1.0000000
11
5.1100000
21
-2.1100000
31
2.9000000
12
4.8900000
22
-2.1100000
32
2.9000000
13
4.8900000
23
-2.1100000
33
2.9000000
0
ENDBLK
8
0
0
BLOCK
8
0
2
Frame
70
0
10
0
20
0
30
0
0
INSERT
8
0
2
Post
62
256
10
-1.45
20
-0.95
30
0
41
1
42
1
43
1
50
0
0
INSERT
8
0
2
Post
62
256
10
-1.45
20
0.95
30
0
41
1
42
1
43
1
50
0
0
INSERT
8
0
2
Post
62
256
10
1.45
20
-0.95
30
0
41
1
42
1
43
1
50
0
0
INSERT
8
0
2
Post
62
256
10
1.45
20
0.95
30
0
41
1
42
1
43
1
50
0
0
ENDBLK
8
0
0
BLOCK
8
0
2
PavilionModule
70
0
10
0
20
0
30
0
0
INSERT
8
Supports
2
Frame
62
256
10
0
20
0
30
0
41
1
42
1
43
1
50
0
0
3DFACE
8
Beam
62
256
10
-1.7000000
20
-1.2500000
30
1.8450000
11
-1.7000000
21
-1.2500000
31
1.9950000
12
-1.7000000
22
1.2500000
32
1.9950000
13
-1.7000000
23
1.2500000
33
1.9950000
0
3DFACE
8
Beam
62
256
10
-1.7000000
20
-1.2500000
30
1.8450000
11
-1.7000000
21
1.2500000
31
1.9950000
12
-1.7000000
22
1.2500000
32
1.8450000
13
-1.7000000
23
1.2500000
33
1.8450000
0
3DFACE
8
Beam
62
256
10
1.7000000
20
1.2500000
30
1.8450000
11
1.7000000
21
1.2500000
31
1.9950000
12
1.7000000
22
-1.2500000
32
1.9950000
13
1.7000000
23
-1.2500000
33
1.9950000
0
3DFACE
8
Beam
62
256
10
1.7000000
20
1.2500000
30
1.8450000
11
1.7000000
21
-1.2500000
31
1.9950000
12
1.7000000
22
-1.2500000
32
1.8450000
13
1.7000000
23
-1.2500000
33
1.8450000
0
3DFACE
8
Beam
62
256
10
1.7000000
20
1.2500000
30
1.8450000
11
1.7000000
21
-1.2500000
31
1.8450000
12
-1.7000000
22
-1.2500000
32
1.8450000
13
-1.7000000
23
-1.2500000
33
1.8450000
0
3DFACE
8
Beam
62
256
10
1.7000000
20
1.2500000
30
1.8450000
11
-1.7000000
21
-1.2500000
31
1.8450000
12
-1.7000000
22
1.2500000
32
1.8450000
13
-1.7000000
23
1.2500000
33
1.8450000
0
3DFACE
8
Beam
62
256
10
-1.7000000
20
1.2500000
30
1.9950000
11
-1.7000000
21
-1.2500000
31
1.9950000
12
1.7000000
22
-1.2500000
32
1.9950000
13
1.7000000
23
-1.2500000
33
1.9950000
0
3DFACE
8
Beam
62
256
10
-1.7000000
20
1.2500000
30
1.9950000
11
1.7000000
21
-1.2500000
31
1.9950000
12
1.7000000
22
1.2500000
32
1.9950000
13
1.7000000
23
1.2500000
33
1.9950000
0
3DFACE
8
Beam
62
256
10
-1.7000000
20
1.2500000
30
1.9950000
11
1.7000000
21
1.2500000
31
1.9950000
12
1.7000000
22
1.2500000
32
1.8450000
13
1.7000000
23
1.2500000
33
1.8450000
0
3DFACE
8
Beam
62
256
10
-1.7000000
20
1.2500000
30
1.9950000
11
1.7000000
21
1.2500000
31
1.8450000
12
-1.7000000
22
1.2500000
32
1.8450000
13
-1.7000000
23
1.2500000
33
1.8450000
0
3DFACE
8
Beam
62
256
10
-1.7000000
20
-1.2500000
30
1.8450000
11
1.7000000
21
-1.2500000
31
1.8450000
12
1.7000000
22
-1.2500000
32
1.9950000
13
1.7000000
23
-1.2500000
33
1.9950000
0
3DFACE
8
Beam
62
256
10
-1.7000000
20
-1.2500000
30
1.8450000
11
1.7000000
21
-1.2500000
31
1.9950000
12
-1.7000000
22
-1.2500000
32
1.9950000
13
-1.7000000
23
-1.2500000
33
1.9950000
0
3DFACE
8
0
62
0
10
-1.9000000
20
0.0000000
30
2.8000000
11
1.9000000
21
0.0000000
31
2.8000000
12
1.9000000
22
1.4500000
32
2.0000000
13
1.9000000
23
1.4500000
33
2.0000000
0
3DFACE
8
0
62
0
10
-1.9000000
20
0.0000000
30
2.8000000
11
1.9000000
21
1.4500000
31
2.0000000
12
-1.9000000
22
1.4500000
32
2.0000000
13
-1.9000000
23
1.4500000
33
2.0000000
0
3DFACE
8
0
62
0
10
-1.9000000
20
-1.4500000
30
2.0000000
11
1.9000000
21
-1.4500000
31
2.0000000
12
1.9000000
22
0.0000000
32
2.8000000
13
1.9000000
23
0.0000000
33
2.8000000
0
3DFACE
8
0
62
0
10
-1.9000000
20
-1.4500000
30
2.0000000
11
1.9000000
21
0.0000000
31
2.8000000
12
-1.9000000
22
0.0000000
32
2.8000000
13
-1.9000000
23
0.0000000
33
2.8000000
0
ENDBLK
8
0
0
ENDSEC
0
SECTION
2
ENTITIES
0
3DFACE
8
Platform
62
256
10
-3.8500000
20
-2.1000000
30
-0.0400000
11
-3.8500000
21
-2.1000000
31
0.1200000
12
-3.8500000
22
2.1000000
32
0.1200000
13
-3.8500000
23
2.1000000
33
0.1200000
0
3DFACE
8
Platform
62
256
10
-3.8500000
20
-2.1000000
30
-0.0400000
11
-3.8500000
21
2.1000000
31
0.1200000
12
-3.8500000
22
2.1000000
32
-0.0400000
13
-3.8500000
23
2.1000000
33
-0.0400000
0
3DFACE
8
Platform
62
256
10
3.8500000
20
2.1000000
30
-0.0400000
11
3.8500000
21
2.1000000
31
0.1200000
12
3.8500000
22
-2.1000000
32
0.1200000
13
3.8500000
23
-2.1000000
33
0.1200000
0
3DFACE
8
Platform
62
256
10
3.8500000
20
2.1000000
30
-0.0400000
11
3.8500000
21
-2.1000000
31
0.1200000
12
3.8500000
22
-2.1000000
32
-0.0400000
13
3.8500000
23
-2.1000000
33
-0.0400000
0
3DFACE
8
Platform
62
256
10
3.8500000
20
2.1000000
30
-0.0400000
11
3.8500000
21
-2.1000000
31
-0.0400000
12
-3.8500000
22
-2.1000000
32
-0.0400000
13
-3.8500000
23
-2.1000000
33
-0.0400000
0
3DFACE
8
Platform
62
256
10
3.8500000
20
2.1000000
30
-0.0400000
11
-3.8500000
21
-2.1000000
31
-0.0400000
12
-3.8500000
22
2.1000000
32
-0.0400000
13
-3.8500000
23
2.1000000
33
-0.0400000
0
3DFACE
8
Platform
62
256
10
-3.8500000
20
2.1000000
30
0.1200000
11
-3.8500000
21
-2.1000000
31
0.1200000
12
3.8500000
22
-2.1000000
32
0.1200000
13
3.8500000
23
-2.1000000
33
0.1200000
0
3DFACE
8
Platform
62
256
10
-3.8500000
20
2.1000000
30
0.1200000
11
3.8500000
21
-2.1000000
31
0.1200000
12
3.8500000
22
2.1000000
32
0.1200000
13
3.8500000
23
2.1000000
33
0.1200000
0
3DFACE
8
Platform
62
256
10
-3.8500000
20
2.1000000
30
0.1200000
11
3.8500000
21
2.1000000
31
0.1200000
12
3.8500000
22
2.1000000
32
-0.0400000
13
3.8500000
23
2.1000000
33
-0.0400000
0
3DFACE
8
Platform
62
256
10
-3.8500000
20
2.1000000
30
0.1200000
11
3.8500000
21
2.1000000
31
-0.0400000
12
-3.8500000
22
2.1000000
32
-0.0400000
13
-3.8500000
23
2.1000000
33
-0.0400000
0
3DFACE
8
Platform
62
256
10
-3.8500000
20
-2.1000000
30
-0.0400000
11
3.8500000
21
-2.1000000
31
-0.0400000
12
3.8500000
22
-2.1000000
32
0.1200000
13
3.8500000
23
-2.1000000
33
0.1200000
0
3DFACE
8
Platform
62
256
10
-3.8500000
20
-2.1000000
30
-0.0400000
11
3.8500000
21
-2.1000000
31
0.1200000
12
-3.8500000
22
-2.1000000
32
0.1200000
13
-3.8500000
23
-2.1000000
33
0.1200000
0
INSERT
8
RoofBlue
2
PavilionModule
62
256
10
-1.9
20
0
30
0.12
41
0.78
42
0.85
43
0.85
50
15
0
INSERT
8
RoofRust
2
PavilionModule
62
256
10
1.9
20
0.2
30
0.12
41
-0.72
42
0.78
43
0.72
50
-20
0
ENDSEC
0
EOF
