0
SECTION
2
HEADER
9
$ACADVER
1
AC1009
0
ENDSEC
0
SECTION
2
ENTITIES
0
3DFACE
8
Pavilion
62
8
10
-1.8500000
20
-1.4000000
30
0.0000000
11
-1.8500000
21
-1.4000000
31
0.2000000
12
-1.8500000
22
1.4000000
32
0.2000000
13
-1.8500000
23
1.4000000
33
0.2000000
0
3DFACE
8
Pavilion
62
8
10
-1.8500000
20
-1.4000000
30
0.0000000
11
-1.8500000
21
1.4000000
31
0.2000000
12
-1.8500000
22
1.4000000
32
0.0000000
13
-1.8500000
23
1.4000000
33
0.0000000
0
3DFACE
8
Pavilion
62
8
10
1.8500000
20
1.4000000
30
0.0000000
11
1.8500000
21
1.4000000
31
0.2000000
12
1.8500000
22
-1.4000000
32
0.2000000
13
1.8500000
23
-1.4000000
33
0.2000000
0
3DFACE
8
Pavilion
62
8
10
1.8500000
20
1.4000000
30
0.0000000
11
1.8500000
21
-1.4000000
31
0.2000000
12
1.8500000
22
-1.4000000
32
0.0000000
13
1.8500000
23
-1.4000000
33
0.0000000
0
3DFACE
8
Pavilion
62
8
10
1.8500000
20
1.4000000
30
0.0000000
11
1.8500000
21
-1.4000000
31
0.0000000
12
-1.8500000
22
-1.4000000
32
0.0000000
13
-1.8500000
23
-1.4000000
33
0.0000000
0
3DFACE
8
Pavilion
62
8
10
1.8500000
20
1.4000000
30
0.0000000
11
-1.8500000
21
-1.4000000
31
0.0000000
12
-1.8500000
22
1.4000000
32
0.0000000
13
-1.8500000
23
1.4000000
33
0.0000000
0
3DFACE
8
Pavilion
62
8
10
-1.8500000
20
1.4000000
30
0.2000000
11
-1.8500000
21
-1.4000000
31
0.2000000
12
1.8500000
22
-1.4000000
32
0.2000000
13
1.8500000
23
-1.4000000
33
0.2000000
0
3DFACE
8
Pavilion
62
8
10
-1.8500000
20
1.4000000
30
0.2000000
11
1.8500000
21
-1.4000000
31
0.2000000
12
1.8500000
22
1.4000000
32
0.2000000
13
1.8500000
23
1.4000000
33
0.2000000
0
3DFACE
8
Pavilion
62
8
10
-1.8500000
20
1.4000000
30
0.2000000
11
1.8500000
21
1.4000000
31
0.2000000
12
1.8500000
22
1.4000000
32
0.0000000
13
1.8500000
23
1.4000000
33
0.0000000
0
3DFACE
8
Pavilion
62
8
10
-1.8500000
20
1.4000000
30
0.2000000
11
1.8500000
21
1.4000000
31
0.0000000
12
-1.8500000
22
1.4000000
32
0.0000000
13
-1.8500000
23
1.4000000
33
0.0000000
0
3DFACE
8
Pavilion
62
8
10
-1.8500000
20
-1.4000000
30
0.0000000
11
1.8500000
21
-1.4000000
31
0.0000000
12
1.8500000
22
-1.4000000
32
0.2000000
13
1.8500000
23
-1.4000000
33
0.2000000
0
3DFACE
8
Pavilion
62
8
10
-1.8500000
20
-1.4000000
30
0.0000000
11
1.8500000
21
-1.4000000
31
0.2000000
12
-1.8500000
22
-1.4000000
32
0.2000000
13
-1.8500000
23
-1.4000000
33
0.2000000
0
3DFACE
8
Pavilion
62
7
10
-1.5600000
20
0.8400000
30
0.1500000
11
-1.5600000
21
0.8400000
31
1.9500000
12
-1.5600000
22
1.0600000
32
1.9500000
13
-1.5600000
23
1.0600000
33
1.9500000
0
3DFACE
8
Pavilion
62
7
10
-1.5600000
20
0.8400000
30
0.1500000
11
-1.5600000
21
1.0600000
31
1.9500000
12
-1.5600000
22
1.0600000
32
0.1500000
13
-1.5600000
23
1.0600000
33
0.1500000
0
3DFACE
8
Pavilion
62
7
10
-1.3400000
20
1.0600000
30
0.1500000
11
-1.3400000
21
1.0600000
31
1.9500000
12
-1.3400000
22
0.8400000
32
1.9500000
13
-1.3400000
23
0.8400000
33
1.9500000
0
3DFACE
8
Pavilion
62
7
10
-1.3400000
20
1.0600000
30
0.1500000
11
-1.3400000
21
0.8400000
31
1.9500000
12
-1.3400000
22
0.8400000
32
0.1500000
13
-1.3400000
23
0.8400000
33
0.1500000
0
3DFACE
8
Pavilion
62
7
10
-1.3400000
20
1.0600000
30
0.1500000
11
-1.3400000
21
0.8400000
31
0.1500000
12
-1.5600000
22
0.8400000
32
0.1500000
13
-1.5600000
23
0.8400000
33
0.1500000
0
3DFACE
8
Pavilion
62
7
10
-1.3400000
20
1.0600000
30
0.1500000
11
-1.5600000
21
0.8400000
31
0.1500000
12
-1.5600000
22
1.0600000
32
0.1500000
13
-1.5600000
23
1.0600000
33
0.1500000
0
3DFACE
8
Pavilion
62
7
10
-1.5600000
20
1.0600000
30
1.9500000
11
-1.5600000
21
0.8400000
31
1.9500000
12
-1.3400000
22
0.8400000
32
1.9500000
13
-1.3400000
23
0.8400000
33
1.9500000
0
3DFACE
8
Pavilion
62
7
10
-1.5600000
20
1.0600000
30
1.9500000
11
-1.3400000
21
0.8400000
31
1.9500000
12
-1.3400000
22
1.0600000
32
1.9500000
13
-1.3400000
23
1.0600000
33
1.9500000
0
3DFACE
8
Pavilion
62
7
10
-1.5600000
20
1.0600000
30
1.9500000
11
-1.3400000
21
1.0600000
31
1.9500000
12
-1.3400000
22
1.0600000
32
0.1500000
13
-1.3400000
23
1.0600000
33
0.1500000
0
3DFACE
8
Pavilion
62
7
10
-1.5600000
20
1.0600000
30
1.9500000
11
-1.3400000
21
1.0600000
31
0.1500000
12
-1.5600000
22
1.0600000
32
0.1500000
13
-1.5600000
23
1.0600000
33
0.1500000
0
3DFACE
8
Pavilion
62
7
10
-1.5600000
20
0.8400000
30
0.1500000
11
-1.3400000
21
0.8400000
31
0.1500000
12
-1.3400000
22
0.8400000
32
1.9500000
13
-1.3400000
23
0.8400000
33
1.9500000
0
3DFACE
8
Pavilion
62
7
10
-1.5600000
20
0.8400000
30
0.1500000
11
-1.3400000
21
0.8400000
31
1.9500000
12
-1.5600000
22
0.8400000
32
1.9500000
13
-1.5600000
23
0.8400000
33
1.9500000
0
3DFACE
8
Pavilion
62
7
10
-1.5600000
20
-1.0600000
30
0.1500000
11
-1.5600000
21
-1.0600000
31
1.9500000
12
-1.5600000
22
-0.8400000
32
1.9500000
13
-1.5600000
23
-0.8400000
33
1.9500000
0
3DFACE
8
Pavilion
62
7
10
-1.5600000
20
-1.0600000
30
0.1500000
11
-1.5600000
21
-0.8400000
31
1.9500000
12
-1.5600000
22
-0.8400000
32
0.1500000
13
-1.5600000
23
-0.8400000
33
0.1500000
0
3DFACE
8
Pavilion
62
7
10
-1.3400000
20
-0.8400000
30
0.1500000
11
-1.3400000
21
-0.8400000
31
1.9500000
12
-1.3400000
22
-1.0600000
32
1.9500000
13
-1.3400000
23
-1.0600000
33
1.9500000
0
3DFACE
8
Pavilion
62
7
10
-1.3400000
20
-0.8400000
30
0.1500000
11
-1.3400000
21
-1.0600000
31
1.9500000
12
-1.3400000
22
-1.0600000
32
0.1500000
13
-1.3400000
23
-1.0600000
33
0.1500000
0
3DFACE
8
Pavilion
62
7
10
-1.3400000
20
-0.8400000
30
0.1500000
11
-1.3400000
21
-1.0600000
31
0.1500000
12
-1.5600000
22
-1.0600000
32
0.1500000
13
-1.5600000
23
-1.0600000
33
0.1500000
0
3DFACE
8
Pavilion
62
7
10
-1.3400000
20
-0.8400000
30
0.1500000
11
-1.5600000
21
-1.0600000
31
0.1500000
12
-1.5600000
22
-0.8400000
32
0.1500000
13
-1.5600000
23
-0.8400000
33
0.1500000
0
3DFACE
8
Pavilion
62
7
10
-1.5600000
20
-0.8400000
30
1.9500000
11
-1.5600000
21
-1.0600000
31
1.9500000
12
-1.3400000
22
-1.0600000
32
1.9500000
13
-1.3400000
23
-1.0600000
33
1.9500000
0
3DFACE
8
Pavilion
62
7
10
-1.5600000
20
-0.8400000
30
1.9500000
11
-1.3400000
21
-1.0600000
31
1.9500000
12
-1.3400000
22
-0.8400000
32
1.9500000
13
-1.3400000
23
-0.8400000
33
1.9500000
0
3DFACE
8
Pavilion
62
7
10
-1.5600000
20
-0.8400000
30
1.9500000
11
-1.3400000
21
-0.8400000
31
1.9500000
12
-1.3400000
22
-0.8400000
32
0.1500000
13
-1.3400000
23
-0.8400000
33
0.1500000
0
3DFACE
8
Pavilion
62
7
10
-1.5600000
20
-0.8400000
30
1.9500000
11
-1.3400000
21
-0.8400000
31
0.1500000
12
-1.5600000
22
-0.8400000
32
0.1500000
13
-1.5600000
23
-0.8400000
33
0.1500000
0
3DFACE
8
Pavilion
62
7
10
-1.5600000
20
-1.0600000
30
0.1500000
11
-1.3400000
21
-1.0600000
31
0.1500000
12
-1.3400000
22
-1.0600000
32
1.9500000
13
-1.3400000
23
-1.0600000
33
1.9500000
0
3DFACE
8
Pavilion
62
7
10
-1.5600000
20
-1.0600000
30
0.1500000
11
-1.3400000
21
-1.0600000
31
1.9500000
12
-1.5600000
22
-1.0600000
32
1.9500000
13
-1.5600000
23
-1.0600000
33
1.9500000
0
3DFACE
8
Pavilion
62
7
10
1.3400000
20
0.8400000
30
0.1500000
11
1.3400000
21
0.8400000
31
1.9500000
12
1.3400000
22
1.0600000
32
1.9500000
13
1.3400000
23
1.0600000
33
1.9500000
0
3DFACE
8
Pavilion
62
7
10
1.3400000
20
0.8400000
30
0.1500000
11
1.3400000
21
1.0600000
31
1.9500000
12
1.3400000
22
1.0600000
32
0.1500000
13
1.3400000
23
1.0600000
33
0.1500000
0
3DFACE
8
Pavilion
62
7
10
1.5600000
20
1.0600000
30
0.1500000
11
1.5600000
21
1.0600000
31
1.9500000
12
1.5600000
22
0.8400000
32
1.9500000
13
1.5600000
23
0.8400000
33
1.9500000
0
3DFACE
8
Pavilion
62
7
10
1.5600000
20
1.0600000
30
0.1500000
11
1.5600000
21
0.8400000
31
1.9500000
12
1.5600000
22
0.8400000
32
0.1500000
13
1.5600000
23
0.8400000
33
0.1500000
0
3DFACE
8
Pavilion
62
7
10
1.5600000
20
1.0600000
30
0.1500000
11
1.5600000
21
0.8400000
31
0.1500000
12
1.3400000
22
0.8400000
32
0.1500000
13
1.3400000
23
0.8400000
33
0.1500000
0
3DFACE
8
Pavilion
62
7
10
1.5600000
20
1.0600000
30
0.1500000
11
1.3400000
21
0.8400000
31
0.1500000
12
1.3400000
22
1.0600000
32
0.1500000
13
1.3400000
23
1.0600000
33
0.1500000
0
3DFACE
8
Pavilion
62
7
10
1.3400000
20
1.0600000
30
1.9500000
11
1.3400000
21
0.8400000
31
1.9500000
12
1.5600000
22
0.8400000
32
1.9500000
13
1.5600000
23
0.8400000
33
1.9500000
0
3DFACE
8
Pavilion
62
7
10
1.3400000
20
1.0600000
30
1.9500000
11
1.5600000
21
0.8400000
31
1.9500000
12
1.5600000
22
1.0600000
32
1.9500000
13
1.5600000
23
1.0600000
33
1.9500000
0
3DFACE
8
Pavilion
62
7
10
1.3400000
20
1.0600000
30
1.9500000
11
1.5600000
21
1.0600000
31
1.9500000
12
1.5600000
22
1.0600000
32
0.1500000
13
1.5600000
23
1.0600000
33
0.1500000
0
3DFACE
8
Pavilion
62
7
10
1.3400000
20
1.0600000
30
1.9500000
11
1.5600000
21
1.0600000
31
0.1500000
12
1.3400000
22
1.0600000
32
0.1500000
13
1.3400000
23
1.0600000
33
0.1500000
0
3DFACE
8
Pavilion
62
7
10
1.3400000
20
0.8400000
30
0.1500000
11
1.5600000
21
0.8400000
31
0.1500000
12
1.5600000
22
0.8400000
32
1.9500000
13
1.5600000
23
0.8400000
33
1.9500000
0
3DFACE
8
Pavilion
62
7
10
1.3400000
20
0.8400000
30
0.1500000
11
1.5600000
21
0.8400000
31
1.9500000
12
1.3400000
22
0.8400000
32
1.9500000
13
1.3400000
23
0.8400000
33
1.9500000
0
3DFACE
8
Pavilion
62
7
10
1.3400000
20
-1.0600000
30
0.1500000
11
1.3400000
21
-1.0600000
31
1.9500000
12
1.3400000
22
-0.8400000
32
1.9500000
13
1.3400000
23
-0.8400000
33
1.9500000
0
3DFACE
8
Pavilion
62
7
10
1.3400000
20
-1.0600000
30
0.1500000
11
1.3400000
21
-0.8400000
31
1.9500000
12
1.3400000
22
-0.8400000
32
0.1500000
13
1.3400000
23
-0.8400000
33
0.1500000
0
3DFACE
8
Pavilion
62
7
10
1.5600000
20
-0.8400000
30
0.1500000
11
1.5600000
21
-0.8400000
31
1.9500000
12
1.5600000
22
-1.0600000
32
1.9500000
13
1.5600000
23
-1.0600000
33
1.9500000
0
3DFACE
8
Pavilion
62
7
10
1.5600000
20
-0.8400000
30
0.1500000
11
1.5600000
21
-1.0600000
31
1.9500000
12
1.5600000
22
-1.0600000
32
0.1500000
13
1.5600000
23
-1.0600000
33
0.1500000
0
3DFACE
8
Pavilion
62
7
10
1.5600000
20
-0.8400000
30
0.1500000
11
1.5600000
21
-1.0600000
31
0.1500000
12
1.3400000
22
-1.0600000
32
0.1500000
13
1.3400000
23
-1.0600000
33
0.1500000
0
3DFACE
8
Pavilion
62
7
10
1.5600000
20
-0.8400000
30
0.1500000
11
1.3400000
21
-1.0600000
31
0.1500000
12
1.3400000
22
-0.8400000
32
0.1500000
13
1.3400000
23
-0.8400000
33
0.1500000
0
3DFACE
8
Pavilion
62
7
10
1.3400000
20
-0.8400000
30
1.9500000
11
1.3400000
21
-1.0600000
31
1.9500000
12
1.5600000
22
-1.0600000
32
1.9500000
13
1.5600000
23
-1.0600000
33
1.9500000
0
3DFACE
8
Pavilion
62
7
10
1.3400000
20
-0.8400000
30
1.9500000
11
1.5600000
21
-1.0600000
31
1.9500000
12
1.5600000
22
-0.8400000
32
1.9500000
13
1.5600000
23
-0.8400000
33
1.9500000
0
3DFACE
8
Pavilion
62
7
10
1.3400000
20
-0.8400000
30
1.9500000
11
1.5600000
21
-0.8400000
31
1.9500000
12
1.5600000
22
-0.8400000
32
0.1500000
13
1.5600000
23
-0.8400000
33
0.1500000
0
3DFACE
8
Pavilion
62
7
10
1.3400000
20
-0.8400000
30
1.9500000
11
1.5600000
21
-0.8400000
31
0.1500000
12
1.3400000
22
-0.8400000
32
0.1500000
13
1.3400000
23
-0.8400000
33
0.1500000
0
3DFACE
8
Pavilion
62
7
10
1.3400000
20
-1.0600000
30
0.1500000
11
1.5600000
21
-1.0600000
31
0.1500000
12
1.5600000
22
-1.0600000
32
1.9500000
13
1.5600000
23
-1.0600000
33
1.9500000
0
3DFACE
8
Pavilion
62
7
10
1.3400000
20
-1.0600000
30
0.1500000
11
1.5600000
21
-1.0600000
31
1.9500000
12
1.3400000
22
-1.0600000
32
1.9500000
13
1.3400000
23
-1.0600000
33
1.9500000
0
3DFACE
8
Pavilion
62
33
10
-1.7000000
20
-1.2500000
30
1.8450000
11
-1.7000000
21
-1.2500000
31
1.9950000
12
-1.7000000
22
1.2500000
32
1.9950000
13
-1.7000000
23
1.2500000
33
1.9950000
0
3DFACE
8
Pavilion
62
33
10
-1.7000000
20
-1.2500000
30
1.8450000
11
-1.7000000
21
1.2500000
31
1.9950000
12
-1.7000000
22
1.2500000
32
1.8450000
13
-1.7000000
23
1.2500000
33
1.8450000
0
3DFACE
8
Pavilion
62
33
10
1.7000000
20
1.2500000
30
1.8450000
11
1.7000000
21
1.2500000
31
1.9950000
12
1.7000000
22
-1.2500000
32
1.9950000
13
1.7000000
23
-1.2500000
33
1.9950000
0
3DFACE
8
Pavilion
62
33
10
1.7000000
20
1.2500000
30
1.8450000
11
1.7000000
21
-1.2500000
31
1.9950000
12
1.7000000
22
-1.2500000
32
1.8450000
13
1.7000000
23
-1.2500000
33
1.8450000
0
3DFACE
8
Pavilion
62
33
10
1.7000000
20
1.2500000
30
1.8450000
11
1.7000000
21
-1.2500000
31
1.8450000
12
-1.7000000
22
-1.2500000
32
1.8450000
13
-1.7000000
23
-1.2500000
33
1.8450000
0
3DFACE
8
Pavilion
62
33
10
1.7000000
20
1.2500000
30
1.8450000
11
-1.7000000
21
-1.2500000
31
1.8450000
12
-1.7000000
22
1.2500000
32
1.8450000
13
-1.7000000
23
1.2500000
33
1.8450000
0
3DFACE
8
Pavilion
62
33
10
-1.7000000
20
1.2500000
30
1.9950000
11
-1.7000000
21
-1.2500000
31
1.9950000
12
1.7000000
22
-1.2500000
32
1.9950000
13
1.7000000
23
-1.2500000
33
1.9950000
0
3DFACE
8
Pavilion
62
33
10
-1.7000000
20
1.2500000
30
1.9950000
11
1.7000000
21
-1.2500000
31
1.9950000
12
1.7000000
22
1.2500000
32
1.9950000
13
1.7000000
23
1.2500000
33
1.9950000
0
3DFACE
8
Pavilion
62
33
10
-1.7000000
20
1.2500000
30
1.9950000
11
1.7000000
21
1.2500000
31
1.9950000
12
1.7000000
22
1.2500000
32
1.8450000
13
1.7000000
23
1.2500000
33
1.8450000
0
3DFACE
8
Pavilion
62
33
10
-1.7000000
20
1.2500000
30
1.9950000
11
1.7000000
21
1.2500000
31
1.8450000
12
-1.7000000
22
1.2500000
32
1.8450000
13
-1.7000000
23
1.2500000
33
1.8450000
0
3DFACE
8
Pavilion
62
33
10
-1.7000000
20
-1.2500000
30
1.8450000
11
1.7000000
21
-1.2500000
31
1.8450000
12
1.7000000
22
-1.2500000
32
1.9950000
13
1.7000000
23
-1.2500000
33
1.9950000
0
3DFACE
8
Pavilion
62
33
10
-1.7000000
20
-1.2500000
30
1.8450000
11
1.7000000
21
-1.2500000
31
1.9950000
12
-1.7000000
22
-1.2500000
32
1.9950000
13
-1.7000000
23
-1.2500000
33
1.9950000
0
3DFACE
8
Pavilion
62
145
10
-1.9000000
20
0.0000000
30
2.8000000
11
1.9000000
21
0.0000000
31
2.8000000
12
1.9000000
22
1.4500000
32
2.0000000
13
1.9000000
23
1.4500000
33
2.0000000
0
3DFACE
8
Pavilion
62
145
10
-1.9000000
20
0.0000000
30
2.8000000
11
1.9000000
21
1.4500000
31
2.0000000
12
-1.9000000
22
1.4500000
32
2.0000000
13
-1.9000000
23
1.4500000
33
2.0000000
0
3DFACE
8
Pavilion
62
145
10
-1.9000000
20
-1.4500000
30
2.0000000
11
1.9000000
21
-1.4500000
31
2.0000000
12
1.9000000
22
0.0000000
32
2.8000000
13
1.9000000
23
0.0000000
33
2.8000000
0
3DFACE
8
Pavilion
62
145
10
-1.9000000
20
-1.4500000
30
2.0000000
11
1.9000000
21
0.0000000
31
2.8000000
12
-1.9000000
22
0.0000000
32
2.8000000
13
-1.9000000
23
0.0000000
33
2.8000000
0
ENDSEC
0
EOF
